<mxfile host="app.diagrams.net" modified="2023-09-18T09:17:23.813Z" agent="Mozilla/5.0 (X11; Linux x86_64) AppleWebKit/537.36 (KHTML, like Gecko) Chrome/117.0.0.0 Safari/537.36 Edg/117.0.2045.21" etag="yE0vngN8ZHvqRC7fmFmY" version="21.7.5" type="github">
  <diagram id="C5RBs43oDa-KdzZeNtuy" name="Page-1">
    <mxGraphModel dx="1356" dy="1939" grid="1" gridSize="10" guides="1" tooltips="1" connect="1" arrows="1" fold="1" page="1" pageScale="1" pageWidth="827" pageHeight="1169" math="0" shadow="0">
      <root>
        <mxCell id="WIyWlLk6GJQsqaUBKTNV-0" />
        <mxCell id="WIyWlLk6GJQsqaUBKTNV-1" parent="WIyWlLk6GJQsqaUBKTNV-0" />
        <mxCell id="8GjZNlcFtNTD6TcdjNT--31" style="edgeStyle=orthogonalEdgeStyle;rounded=0;orthogonalLoop=1;jettySize=auto;html=1;exitX=0.5;exitY=0;exitDx=0;exitDy=0;" parent="WIyWlLk6GJQsqaUBKTNV-1" edge="1">
          <mxGeometry relative="1" as="geometry">
            <mxPoint x="320" y="520" as="targetPoint" />
            <Array as="points">
              <mxPoint x="160" y="520" />
              <mxPoint x="161" y="520" />
            </Array>
          </mxGeometry>
        </mxCell>
        <mxCell id="GUU619C1Z_a8zL5flL5t-2" value="" style="ellipse;html=1;shape=startState;fillColor=#000000;strokeColor=#ff0000;" vertex="1" parent="WIyWlLk6GJQsqaUBKTNV-1">
          <mxGeometry x="400" y="-1140" width="30" height="30" as="geometry" />
        </mxCell>
        <mxCell id="GUU619C1Z_a8zL5flL5t-3" value="" style="edgeStyle=orthogonalEdgeStyle;html=1;verticalAlign=bottom;endArrow=open;endSize=8;strokeColor=#ff0000;rounded=0;" edge="1" source="GUU619C1Z_a8zL5flL5t-2" parent="WIyWlLk6GJQsqaUBKTNV-1">
          <mxGeometry relative="1" as="geometry">
            <mxPoint x="415" y="-1050" as="targetPoint" />
          </mxGeometry>
        </mxCell>
        <mxCell id="GUU619C1Z_a8zL5flL5t-5" value="Выбор каталога" style="rounded=1;whiteSpace=wrap;html=1;arcSize=40;fontColor=#000000;fillColor=#ffffc0;strokeColor=#ff0000;" vertex="1" parent="WIyWlLk6GJQsqaUBKTNV-1">
          <mxGeometry x="355" y="-1050" width="120" height="40" as="geometry" />
        </mxCell>
        <mxCell id="GUU619C1Z_a8zL5flL5t-6" value="" style="edgeStyle=orthogonalEdgeStyle;html=1;verticalAlign=bottom;endArrow=open;endSize=8;strokeColor=#ff0000;rounded=0;" edge="1" source="GUU619C1Z_a8zL5flL5t-5" parent="WIyWlLk6GJQsqaUBKTNV-1">
          <mxGeometry relative="1" as="geometry">
            <mxPoint x="415" y="-950" as="targetPoint" />
          </mxGeometry>
        </mxCell>
        <mxCell id="GUU619C1Z_a8zL5flL5t-7" value="" style="rhombus;whiteSpace=wrap;html=1;fontColor=#000000;fillColor=#ffffc0;strokeColor=#ff0000;" vertex="1" parent="WIyWlLk6GJQsqaUBKTNV-1">
          <mxGeometry x="376" y="-950" width="75" height="40" as="geometry" />
        </mxCell>
        <mxCell id="GUU619C1Z_a8zL5flL5t-8" value="[Каталог не существует ]" style="edgeStyle=orthogonalEdgeStyle;html=1;align=left;verticalAlign=bottom;endArrow=open;endSize=8;strokeColor=#ff0000;rounded=0;entryX=1;entryY=0.25;entryDx=0;entryDy=0;exitX=1;exitY=0.5;exitDx=0;exitDy=0;" edge="1" source="GUU619C1Z_a8zL5flL5t-7" parent="WIyWlLk6GJQsqaUBKTNV-1" target="GUU619C1Z_a8zL5flL5t-5">
          <mxGeometry x="-1" y="-11" relative="1" as="geometry">
            <mxPoint x="590" y="-1150" as="targetPoint" />
            <Array as="points">
              <mxPoint x="591" y="-930" />
              <mxPoint x="591" y="-1040" />
            </Array>
            <mxPoint x="-11" y="-11" as="offset" />
          </mxGeometry>
        </mxCell>
        <mxCell id="GUU619C1Z_a8zL5flL5t-9" value="[Каталог существует]" style="edgeStyle=orthogonalEdgeStyle;html=1;align=left;verticalAlign=top;endArrow=open;endSize=8;strokeColor=#ff0000;rounded=0;exitX=0.5;exitY=1;exitDx=0;exitDy=0;" edge="1" source="GUU619C1Z_a8zL5flL5t-7" parent="WIyWlLk6GJQsqaUBKTNV-1">
          <mxGeometry x="-0.3985" y="-23" relative="1" as="geometry">
            <mxPoint x="414" y="-830" as="targetPoint" />
            <Array as="points">
              <mxPoint x="414" y="-850" />
            </Array>
            <mxPoint as="offset" />
          </mxGeometry>
        </mxCell>
        <mxCell id="GUU619C1Z_a8zL5flL5t-10" value="" style="shape=line;html=1;strokeWidth=6;strokeColor=#ff0000;" vertex="1" parent="WIyWlLk6GJQsqaUBKTNV-1">
          <mxGeometry x="314" y="-830" width="200" height="10" as="geometry" />
        </mxCell>
        <mxCell id="GUU619C1Z_a8zL5flL5t-11" value="" style="edgeStyle=orthogonalEdgeStyle;html=1;verticalAlign=bottom;endArrow=open;endSize=8;strokeColor=#ff0000;rounded=0;exitX=0;exitY=0.5;exitDx=0;exitDy=0;exitPerimeter=0;" edge="1" source="GUU619C1Z_a8zL5flL5t-10" parent="WIyWlLk6GJQsqaUBKTNV-1">
          <mxGeometry relative="1" as="geometry">
            <mxPoint x="200" y="-780" as="targetPoint" />
          </mxGeometry>
        </mxCell>
        <mxCell id="GUU619C1Z_a8zL5flL5t-12" value="" style="edgeStyle=orthogonalEdgeStyle;html=1;verticalAlign=bottom;endArrow=open;endSize=8;strokeColor=#ff0000;rounded=0;exitX=1;exitY=0.5;exitDx=0;exitDy=0;exitPerimeter=0;" edge="1" parent="WIyWlLk6GJQsqaUBKTNV-1" source="GUU619C1Z_a8zL5flL5t-10">
          <mxGeometry relative="1" as="geometry">
            <mxPoint x="660" y="-780" as="targetPoint" />
            <mxPoint x="324" y="-815" as="sourcePoint" />
          </mxGeometry>
        </mxCell>
        <mxCell id="GUU619C1Z_a8zL5flL5t-13" value="Поиск абонента" style="rounded=1;whiteSpace=wrap;html=1;arcSize=40;fontColor=#000000;fillColor=#ffffc0;strokeColor=#ff0000;" vertex="1" parent="WIyWlLk6GJQsqaUBKTNV-1">
          <mxGeometry x="140" y="-780" width="120" height="40" as="geometry" />
        </mxCell>
        <mxCell id="GUU619C1Z_a8zL5flL5t-14" value="" style="edgeStyle=orthogonalEdgeStyle;html=1;verticalAlign=bottom;endArrow=open;endSize=8;strokeColor=#ff0000;rounded=0;" edge="1" source="GUU619C1Z_a8zL5flL5t-13" parent="WIyWlLk6GJQsqaUBKTNV-1">
          <mxGeometry relative="1" as="geometry">
            <mxPoint x="200" y="-680" as="targetPoint" />
          </mxGeometry>
        </mxCell>
        <mxCell id="GUU619C1Z_a8zL5flL5t-15" value="Редактирование своих данных" style="rounded=1;whiteSpace=wrap;html=1;arcSize=40;fontColor=#000000;fillColor=#ffffc0;strokeColor=#ff0000;" vertex="1" parent="WIyWlLk6GJQsqaUBKTNV-1">
          <mxGeometry x="600" y="-780" width="120" height="40" as="geometry" />
        </mxCell>
        <mxCell id="GUU619C1Z_a8zL5flL5t-16" value="" style="edgeStyle=orthogonalEdgeStyle;html=1;verticalAlign=bottom;endArrow=open;endSize=8;strokeColor=#ff0000;rounded=0;" edge="1" source="GUU619C1Z_a8zL5flL5t-15" parent="WIyWlLk6GJQsqaUBKTNV-1">
          <mxGeometry relative="1" as="geometry">
            <mxPoint x="660" y="-680" as="targetPoint" />
          </mxGeometry>
        </mxCell>
        <mxCell id="GUU619C1Z_a8zL5flL5t-17" value="" style="rhombus;whiteSpace=wrap;html=1;fontColor=#000000;fillColor=#ffffc0;strokeColor=#ff0000;" vertex="1" parent="WIyWlLk6GJQsqaUBKTNV-1">
          <mxGeometry x="160" y="-680" width="80" height="40" as="geometry" />
        </mxCell>
        <mxCell id="GUU619C1Z_a8zL5flL5t-18" value="[Абонент не найден]" style="edgeStyle=orthogonalEdgeStyle;html=1;align=left;verticalAlign=bottom;endArrow=open;endSize=8;strokeColor=#ff0000;rounded=0;exitX=0;exitY=0.5;exitDx=0;exitDy=0;entryX=0;entryY=0.5;entryDx=0;entryDy=0;" edge="1" source="GUU619C1Z_a8zL5flL5t-17" parent="WIyWlLk6GJQsqaUBKTNV-1" target="GUU619C1Z_a8zL5flL5t-13">
          <mxGeometry y="40" relative="1" as="geometry">
            <mxPoint x="80" y="-830" as="targetPoint" />
            <Array as="points">
              <mxPoint x="70" y="-660" />
              <mxPoint x="70" y="-760" />
            </Array>
            <mxPoint as="offset" />
          </mxGeometry>
        </mxCell>
        <mxCell id="GUU619C1Z_a8zL5flL5t-19" value="[Абонент найден]" style="edgeStyle=orthogonalEdgeStyle;html=1;align=left;verticalAlign=top;endArrow=open;endSize=8;strokeColor=#ff0000;rounded=0;entryX=0.5;entryY=0;entryDx=0;entryDy=0;" edge="1" source="GUU619C1Z_a8zL5flL5t-17" parent="WIyWlLk6GJQsqaUBKTNV-1" target="GUU619C1Z_a8zL5flL5t-27">
          <mxGeometry x="-0.3389" y="-40" relative="1" as="geometry">
            <mxPoint x="200" y="-580" as="targetPoint" />
            <Array as="points">
              <mxPoint x="200" y="-440" />
            </Array>
            <mxPoint as="offset" />
          </mxGeometry>
        </mxCell>
        <mxCell id="GUU619C1Z_a8zL5flL5t-20" value="" style="rhombus;whiteSpace=wrap;html=1;fontColor=#000000;fillColor=#ffffc0;strokeColor=#ff0000;" vertex="1" parent="WIyWlLk6GJQsqaUBKTNV-1">
          <mxGeometry x="620" y="-680" width="80" height="40" as="geometry" />
        </mxCell>
        <mxCell id="GUU619C1Z_a8zL5flL5t-21" value="[некоректные данные]" style="edgeStyle=orthogonalEdgeStyle;html=1;align=left;verticalAlign=bottom;endArrow=open;endSize=8;strokeColor=#ff0000;rounded=0;entryX=1;entryY=0.5;entryDx=0;entryDy=0;" edge="1" source="GUU619C1Z_a8zL5flL5t-20" parent="WIyWlLk6GJQsqaUBKTNV-1" target="GUU619C1Z_a8zL5flL5t-15">
          <mxGeometry x="-1" y="30" relative="1" as="geometry">
            <mxPoint x="800" y="-660" as="targetPoint" />
            <Array as="points">
              <mxPoint x="780" y="-660" />
              <mxPoint x="780" y="-760" />
            </Array>
            <mxPoint as="offset" />
          </mxGeometry>
        </mxCell>
        <mxCell id="GUU619C1Z_a8zL5flL5t-22" value="[коректные данные]" style="edgeStyle=orthogonalEdgeStyle;html=1;align=left;verticalAlign=top;endArrow=open;endSize=8;strokeColor=#ff0000;rounded=0;entryX=1;entryY=0.5;entryDx=0;entryDy=0;" edge="1" parent="WIyWlLk6GJQsqaUBKTNV-1" target="GUU619C1Z_a8zL5flL5t-23">
          <mxGeometry x="-0.6667" y="-45" relative="1" as="geometry">
            <mxPoint x="470" y="-320" as="targetPoint" />
            <mxPoint x="665" y="-640" as="sourcePoint" />
            <Array as="points">
              <mxPoint x="665" y="-325" />
            </Array>
            <mxPoint as="offset" />
          </mxGeometry>
        </mxCell>
        <mxCell id="GUU619C1Z_a8zL5flL5t-23" value="" style="ellipse;html=1;shape=endState;fillColor=#000000;strokeColor=#ff0000;" vertex="1" parent="WIyWlLk6GJQsqaUBKTNV-1">
          <mxGeometry x="410" y="-340" width="30" height="30" as="geometry" />
        </mxCell>
        <mxCell id="GUU619C1Z_a8zL5flL5t-25" value="Обновление данных абонента" style="rounded=1;whiteSpace=wrap;html=1;arcSize=40;fontColor=#000000;fillColor=#ffffc0;strokeColor=#ff0000;" vertex="1" parent="WIyWlLk6GJQsqaUBKTNV-1">
          <mxGeometry x="600" y="-430" width="120" height="40" as="geometry" />
        </mxCell>
        <mxCell id="GUU619C1Z_a8zL5flL5t-27" value="Возвращает данные об абоненте" style="rounded=1;whiteSpace=wrap;html=1;arcSize=40;fontColor=#000000;fillColor=#ffffc0;strokeColor=#ff0000;" vertex="1" parent="WIyWlLk6GJQsqaUBKTNV-1">
          <mxGeometry x="140" y="-440" width="120" height="40" as="geometry" />
        </mxCell>
        <mxCell id="GUU619C1Z_a8zL5flL5t-28" value="" style="edgeStyle=orthogonalEdgeStyle;html=1;verticalAlign=bottom;endArrow=open;endSize=8;strokeColor=#ff0000;rounded=0;exitX=0.5;exitY=1;exitDx=0;exitDy=0;entryX=0;entryY=0.5;entryDx=0;entryDy=0;" edge="1" source="GUU619C1Z_a8zL5flL5t-27" parent="WIyWlLk6GJQsqaUBKTNV-1" target="GUU619C1Z_a8zL5flL5t-23">
          <mxGeometry relative="1" as="geometry">
            <mxPoint x="310" y="-320" as="targetPoint" />
          </mxGeometry>
        </mxCell>
      </root>
    </mxGraphModel>
  </diagram>
</mxfile>
